<svg xmlns="http://www.w3.org/2000/svg" xmlns:svg="http://www.w3.org/2000/svg" id="svg3577" width="827.384" height="287.244" version="1.1" viewBox="358 100 688.009 380"><metadata id="metadata3693"/><g id="g3589" transform="translate(249.16728,-13.432111)"><rect id="rect3591" width="201" height="44" x="360" y="120" style="fill:#fff"/><rect id="rect3593" width="201" height="44" x="360" y="120" style="fill:none;fill-opacity:0;stroke:#7f7f7f;stroke-width:2;stroke-opacity:1"/><text id="text3595" x="460.5" y="146.772" font-size="15.804" style="font-style:normal;font-weight:400;font-size:15.80440044px;font-family:'courier new';text-anchor:middle;fill:#7f7f7f;fill-opacity:1"><tspan style="font-size:21.16666603px;fill:#7f7f7f;fill-opacity:1" id="tspan3597" x="460.5" y="146.772">@UnknownClass</tspan></text></g><g id="g3657" transform="translate(249.16728,-12.431901)"><line id="line3659" x1="460.5" x2="460.5" y1="200" y2="173.736" style="fill:none;fill-opacity:0;stroke:#000;stroke-width:2"/><polygon id="polygon3661" points="460.5 166.236 465.5 176.236 460.5 173.736 455.5 176.236" style="fill:#000"/><polygon id="polygon3663" points="460.5 166.236 465.5 176.236 460.5 173.736 455.5 176.236" style="fill:none;fill-opacity:0;stroke:#000;stroke-width:2"/></g><g id="g3557" transform="translate(249.16728,234.99999)"><rect style="fill:#fff" id="rect3559" width="201" height="44" x="360" y="200"/><rect style="fill:none;fill-opacity:0;stroke:#7f7f7f;stroke-width:2;stroke-opacity:1" id="rect3561" width="201" height="44" x="360" y="200"/><text style="font-style:normal;font-weight:400;font-size:21.16666603px;font-family:'courier new';text-anchor:middle;fill:#7f7f7f;fill-opacity:1" id="text3563" x="460.5" y="226.772" font-size="15.804"><tspan style="font-size:21.16666603px;fill:#7f7f7f;fill-opacity:1" id="tspan3565" x="460.5" y="226.772">@ClassValBottom</tspan></text></g><rect style="fill:none;fill-opacity:0;stroke:#000;stroke-width:1.97555554;stroke-miterlimit:4;stroke-dasharray:none" id="rect3575" width="372.245" height="43.3" x="521.148" y="353.35"/><text style="font-style:normal;font-weight:400;font-size:21.16666603px;font-family:'courier new';text-anchor:middle;fill:#000" id="text3577" x="708.806" y="378.382" font-size="15.804"><tspan id="tspan3579" x="708.806" y="378.382" style="font-size:21.16666603px">@ClassVal(&quot;java.lang.String&quot;)</tspan></text><g id="g3631" transform="translate(242.50394,155.48248)"><rect style="fill:none;fill-opacity:0;stroke:#000;stroke-width:1.97555554;stroke-miterlimit:4;stroke-dasharray:none" id="rect3583" width="703.126" height="42.331" x="116.462" y="33.92"/><text style="font-style:normal;font-weight:400;font-size:21.16666603px;font-family:'courier new';text-anchor:middle;fill:#000" id="text3585" x="469.175" y="56.766" font-size="15.804"><tspan id="tspan3587" x="469.175" y="56.766" style="font-size:21.16666603px">@ClassBound({&quot;java.lang.String&quot;,&quot;com.example.MyClass&quot;})</tspan></text></g><g id="g3590" transform="translate(249.16728,233.99985)"><line style="fill:none;fill-opacity:0;stroke:#000;stroke-width:2" id="line3592" x1="460.5" x2="460.5" y1="200" y2="173.736"/><polygon style="fill:#000" id="polygon3594" points="460.5 173.736 455.5 176.236 460.5 166.236 465.5 176.236"/><polygon style="fill:none;fill-opacity:0;stroke:#000;stroke-width:2" id="polygon3596" points="460.5 173.736 455.5 176.236 460.5 166.236 465.5 176.236"/></g><polygon id="polygon3604" points="465.5 176.236 460.5 173.736 455.5 176.236 460.5 166.236" transform="matrix(0.3613421,-0.93243331,0.93243331,0.3613421,176.60015,685.00991)" style="fill:#000;fill-opacity:1;stroke:#000;stroke-width:2"/><path style="fill:none;fill-rule:evenodd;stroke:#000;stroke-width:2.76400471;stroke-linecap:butt;stroke-linejoin:miter;stroke-miterlimit:4;stroke-dasharray:none;stroke-opacity:1" id="path4207" d="m 506.0449,318.83324 204.00523,34.32427"/><g id="g3659" transform="translate(254.31136,164.35666)"><g id="g4194"><rect style="fill:none;fill-opacity:0;stroke:#000;stroke-width:1.97555554;stroke-miterlimit:4;stroke-dasharray:none" id="rect3638" width="400.002" height="43.204" x="593.767" y="107.888"/><text style="font-style:normal;font-weight:400;font-size:21.16666603px;font-family:'courier new';text-anchor:middle;fill:#000" id="text3640" x="795.989" y="131.17" font-size="15.804"><tspan style="font-size:21.16666603px" id="tspan3642" x="795.989" y="131.17">@ClassBound(&quot;java.lang.String&quot;)</tspan></text></g><g id="g3651" transform="translate(-172.24538,-16.460672)"><g id="g4186" transform="translate(-57.627117,0)"><rect id="rect3653" width="671.407" height="39.974" x="131.057" y="123.415" style="fill:none;fill-opacity:0;stroke:#000;stroke-width:1.97555554;stroke-miterlimit:4;stroke-dasharray:none"/><text id="text3655" x="469.606" y="146.352" font-size="15.804" style="font-style:normal;font-weight:400;font-size:21.16666603px;font-family:'courier new';text-anchor:middle;fill:#000"><tspan style="font-size:21.16666603px" id="tspan3657" x="469.606" y="146.352">@ClassVal({&quot;java.lang.String&quot;,&quot;com.example.MyClass&quot;})</tspan></text></g></g></g><polygon style="fill:#000;fill-opacity:1;stroke:#000;stroke-width:2" id="polygon7624" points="465.5 176.236 460.5 173.736 455.5 176.236 460.5 166.236" transform="matrix(0.36063736,0.93270611,-0.93270611,0.36063736,1062.049,-170.73459)"/><path style="fill:none;fill-rule:evenodd;stroke:#000;stroke-width:2.39961195;stroke-linecap:butt;stroke-linejoin:miter;stroke-miterlimit:4;stroke-dasharray:none;stroke-opacity:1" id="path4199" d="M 708.26873,353.3872 1065.8075,321.41052"/><path style="fill:none;fill-rule:evenodd;stroke:#000;stroke-width:1.41111112px;stroke-linecap:butt;stroke-linejoin:miter;stroke-opacity:1" id="path4201" d="m 1067.1048,323.14027 0,0"/><line style="fill:none;fill-opacity:0;stroke:#000;stroke-width:2.86678195;stroke-miterlimit:4;stroke-dasharray:none" id="line7628" x1="493.954" x2="704.638" y1="271.288" y2="238.577"/><polygon style="fill:#000;fill-opacity:1;stroke:#000;stroke-width:2" id="polygon7632" points="465.5 176.236 460.5 173.736 455.5 176.236 460.5 166.236" transform="matrix(0.3749201,0.92705713,-0.92705713,0.3749201,691.56047,-253.66045)"/><line id="line7636" x1="1073.641" x2="720.295" y1="270.606" y2="238.671" style="fill:none;fill-opacity:0;stroke:#000;stroke-width:3.08052111;stroke-miterlimit:4;stroke-dasharray:none"/><polygon id="polygon7640" points="455.5 176.236 460.5 166.236 465.5 176.236 460.5 173.736" transform="matrix(0.41276874,-0.91083586,0.91083586,0.41276874,372.78503,586.29175)" style="fill:#000;fill-opacity:1;stroke:#000;stroke-width:2"/></svg>