<svg xmlns="http://www.w3.org/2000/svg" xmlns:xlink="http://www.w3.org/1999/xlink" width="25.5cm" height="5.5cm" viewBox="328 238 1013 205"><g><rect width="160" height="42" x="329.198" y="320.056" style="fill:#fff"/><rect width="160" height="42" x="329.198" y="320.056" style="fill:none;fill-opacity:0;stroke-width:2;stroke:#000"/><text x="409.198" y="345.906" font-size="16" style="fill:#000;text-anchor:middle;font-family:courier new;font-style:normal;font-weight:400"><tspan x="409.198" y="345.906">@Fenum(&quot;A&quot;)</tspan></text></g><g><rect width="189.8" height="42" x="1149.67" y="320" style="fill:#fff"/><rect width="189.8" height="42" x="1149.67" y="320" style="fill:none;fill-opacity:0;stroke-width:2;stroke:#7f7f7f"/><text x="1244.57" y="345.85" font-size="16" style="fill:#7f7f7f;text-anchor:middle;font-family:courier new;font-style:normal;font-weight:400"><tspan x="1244.57" y="345.85">@FenumUnqualified</tspan></text></g><g><rect width="160" height="42" x="740" y="240" style="fill:#fff"/><rect width="160" height="42" x="740" y="240" style="fill:none;fill-opacity:0;stroke-width:2;stroke:#7f7f7f"/><text x="820" y="265.85" font-size="16" style="fill:#7f7f7f;text-anchor:middle;font-family:courier new;font-style:normal;font-weight:400"><tspan x="820" y="265.85">@FenumTop</tspan></text></g><g><line x1="409.198" x2="724.153" y1="320.056" y2="274.779" style="fill:none;fill-opacity:0;stroke-width:2;stroke:#000"/><polygon points="725.149 281.708 738.011 272.787 723.157 267.85" style="fill:#000"/><polygon points="725.149 281.708 738.011 272.787 723.157 267.85" style="fill:none;fill-opacity:0;stroke-width:2;stroke:#000"/></g><g><line x1="1244.57" x2="915.838" y1="320" y2="274.318" style="fill:none;fill-opacity:0;stroke-width:2;stroke:#000"/><polygon points="916.801 267.385 901.971 272.391 914.874 281.251" style="fill:#000"/><polygon points="916.801 267.385 901.971 272.391 914.874 281.251" style="fill:none;fill-opacity:0;stroke-width:2;stroke:#000"/></g><g><line x1="820" x2="424.134" y1="400" y2="363.436" style="fill:none;fill-opacity:0;stroke-width:2;stroke:#000"/><polygon points="424.778 356.465 410.194 362.148 423.491 370.406" style="fill:#000"/><polygon points="424.778 356.465 410.194 362.148 423.491 370.406" style="fill:none;fill-opacity:0;stroke-width:2;stroke:#000"/></g><g><line x1="820" x2="1229.63" y1="400" y2="363.337" style="fill:none;fill-opacity:0;stroke-width:2;stroke:#000"/><polygon points="1230.26 370.309 1243.58 362.089 1229.01 356.365" style="fill:#000"/><polygon points="1230.26 370.309 1243.58 362.089 1229.01 356.365" style="fill:none;fill-opacity:0;stroke-width:2;stroke:#000"/></g><g><rect width="160" height="42" x="740" y="400" style="fill:#fff"/><rect width="160" height="42" x="740" y="400" style="fill:none;fill-opacity:0;stroke-width:2;stroke:#7f7f7f"/><text x="820" y="425.85" font-size="16" style="fill:#7f7f7f;text-anchor:middle;font-family:courier new;font-style:normal;font-weight:400"><tspan x="820" y="425.85">@FenumBottom</tspan></text></g><g><rect width="160" height="41.733" x="499.97" y="320.092" style="fill:#fff"/><rect width="160" height="41.733" x="499.97" y="320.092" style="fill:none;fill-opacity:0;stroke-width:2;stroke:#000"/><text x="579.97" y="345.808" font-size="16" style="fill:#000;text-anchor:middle;font-family:courier new;font-style:normal;font-weight:400"><tspan x="579.97" y="345.808">@Fenum(&quot;B&quot;)</tspan></text></g><g><rect width="160" height="41.733" x="739.446" y="320.092" style="fill:#fff"/><rect width="160" height="41.733" x="739.446" y="320.092" style="fill:none;fill-opacity:0;stroke-width:2;stroke:#000"/><text x="819.446" y="345.808" font-size="16" style="fill:#000;text-anchor:middle;font-family:courier new;font-style:normal;font-weight:400"><tspan x="819.446" y="345.808">@FenumC</tspan></text></g><g><line x1="579.97" x2="729.545" y1="320.092" y2="283.269" style="fill:none;fill-opacity:0;stroke-width:2;stroke:#000"/><polygon points="736.827 281.476 728.313 288.721 729.545 283.269 725.922 279.011" style="fill:#000"/><polygon points="736.827 281.476 728.313 288.721 729.545 283.269 725.922 279.011" style="fill:none;fill-opacity:0;stroke-width:2;stroke:#000"/></g><g><line x1="819.446" x2="819.702" y1="320.092" y2="292.736" style="fill:none;fill-opacity:0;stroke-width:2;stroke:#000"/><polygon points="819.773 285.237 824.679 295.283 819.702 292.736 814.679 295.189" style="fill:#000"/><polygon points="819.773 285.237 824.679 295.283 819.702 292.736 814.679 295.189" style="fill:none;fill-opacity:0;stroke-width:2;stroke:#000"/></g><g><line x1="820" x2="589.585" y1="400" y2="363.353" style="fill:none;fill-opacity:0;stroke-width:2;stroke:#000"/><polygon points="582.178 362.175 592.84 358.808 589.585 363.353 591.269 368.684" style="fill:#000"/><polygon points="582.178 362.175 592.84 358.808 589.585 363.353 591.269 368.684" style="fill:none;fill-opacity:0;stroke-width:2;stroke:#000"/></g><g><line x1="820" x2="819.587" y1="400" y2="371.559" style="fill:none;fill-opacity:0;stroke-width:2;stroke:#000"/><polygon points="819.478 364.06 824.623 373.986 819.587 371.559 814.624 374.131" style="fill:#000"/><polygon points="819.478 364.06 824.623 373.986 819.587 371.559 814.624 374.131" style="fill:none;fill-opacity:0;stroke-width:2;stroke:#000"/></g><g><rect width="40" height="42" x="1079.65" y="320" style="fill:#fff"/><rect width="40" height="42" x="1079.65" y="320" style="fill:none;fill-opacity:0;stroke-width:2;stroke:#000"/><text x="1099.65" y="344.9" font-size="12.8" style="fill:#000;text-anchor:middle;font-family:courier new;font-style:normal;font-weight:400"><tspan x="1099.65" y="344.9">...</tspan></text></g><g><rect width="40" height="41.809" x="669.338" y="320.036" style="fill:#fff"/><rect width="40" height="41.809" x="669.338" y="320.036" style="fill:none;fill-opacity:0;stroke-width:2;stroke:#000"/><text x="689.338" y="344.841" font-size="12.8" style="fill:#000;text-anchor:middle;font-family:courier new;font-style:normal;font-weight:400"><tspan x="689.338" y="344.841">...</tspan></text></g><g><rect width="160" height="41.733" x="910.434" y="320.572" style="fill:#fff"/><rect width="160" height="41.733" x="910.434" y="320.572" style="fill:none;fill-opacity:0;stroke-width:2;stroke:#000"/><text x="990.434" y="346.288" font-size="16" style="fill:#000;text-anchor:middle;font-family:courier new;font-style:normal;font-weight:400"><tspan x="990.434" y="346.288">@FenumD</tspan></text></g><g><line x1="990.434" x2="892.147" y1="320.572" y2="286.217" style="fill:none;fill-opacity:0;stroke-width:2;stroke:#000"/><polygon points="885.067 283.743 896.156 282.322 892.147 286.217 892.857 291.762" style="fill:#000"/><polygon points="885.067 283.743 896.156 282.322 892.147 286.217 892.857 291.762" style="fill:none;fill-opacity:0;stroke-width:2;stroke:#000"/></g><g><line x1="820" x2="980.928" y1="400" y2="364.407" style="fill:none;fill-opacity:0;stroke-width:2;stroke:#000"/><polygon points="988.251 362.787 979.566 369.828 980.928 364.407 977.407 360.064" style="fill:#000"/><polygon points="988.251 362.787 979.566 369.828 980.928 364.407 977.407 360.064" style="fill:none;fill-opacity:0;stroke-width:2;stroke:#000"/></g></svg>