<svg xmlns="http://www.w3.org/2000/svg" xmlns:svg="http://www.w3.org/2000/svg" id="svg2" width="9.5cm" height="4.5cm" version="1.1" viewBox="146 238 365 175"><metadata id="metadata104"/><g id="g4"><rect id="rect6" width="160" height="42" x="349.452" y="304" style="fill:#fff"/><rect id="rect8" width="160" height="42" x="349.452" y="304" style="fill:none;fill-opacity:0;stroke-width:2;stroke:#000"/><text id="text10" x="429.452" y="329.85" font-size="16" style="fill:#000;text-anchor:middle;font-family:courier new;font-style:normal;font-weight:400"><tspan id="tspan12" x="429.452" y="329.85">@InvalidFormat</tspan></text></g><g id="g14"><rect id="rect16" width="160" height="42" x="250.274" y="239.028" style="fill:#fff"/><rect id="rect18" width="160" height="42" x="250.274" y="239.028" style="fill:none;fill-opacity:0;stroke-width:2;stroke:#a2a2a2;stroke-opacity:1"/><text id="text20" x="330.274" y="264.878" font-size="16" style="font-size:16px;font-style:normal;font-weight:400;text-anchor:middle;fill:#a2a2a2;font-family:courier new;fill-opacity:1"><tspan style="fill:#a2a2a2;fill-opacity:1" id="tspan22" x="330.274" y="264.878">@UnknownFormat</tspan></text></g><g id="g24"><line id="line26" x1="429.452" x2="393.6" y1="304" y2="288.104" style="fill:none;fill-opacity:0;stroke-width:2;stroke:#000"/><polygon id="polygon28" points="396.437 281.705 380.801 282.43 390.763 294.504" style="fill:#000"/><polygon id="polygon30" points="396.437 281.705 380.801 282.43 390.763 294.504" style="fill:none;fill-opacity:0;stroke-width:2;stroke:#000"/></g><g id="g32"><line id="line34" x1="227.446" x2="259.858" y1="300" y2="287.4" style="fill:none;fill-opacity:0;stroke-width:2;stroke:#000"/><polygon id="polygon36" points="262.394 293.925 272.907 282.328 257.322 280.876" style="fill:#000"/><polygon id="polygon38" points="262.394 293.925 272.907 282.328 257.322 280.876" style="fill:none;fill-opacity:0;stroke-width:2;stroke:#000"/></g><g id="g40"><rect id="rect42" width="160" height="42" x="250" y="369.95" style="fill:#fff"/><rect id="rect44" width="160" height="42" x="250" y="369.95" style="fill:none;fill-opacity:0;stroke-width:2;stroke:#a2a2a2;stroke-opacity:1"/><text id="text46" x="330" y="395.8" font-size="16" style="fill:#000;text-anchor:middle;font-family:courier new;font-style:normal;font-weight:400"><tspan style="fill:#a2a2a2;fill-opacity:1" id="tspan48" x="330" y="395.8">@FormatBottom</tspan></text></g><g id="g50"><rect id="rect52" width="160" height="42" x="155.446" y="308" style="fill:#fff"/><rect id="rect54" width="160" height="42" x="155.446" y="308" style="fill:none;fill-opacity:0;stroke-width:2;stroke:#000"/></g><g id="g60"><line id="line62" x1="296.424" x2="281.569" y1="368.951" y2="359.219" style="fill:none;fill-opacity:0;stroke-width:2;stroke:#000"/><polygon id="polygon64" points="285.406 353.364 269.859 351.547 277.733 365.074" style="fill:#000"/><polygon id="polygon66" points="285.406 353.364 269.859 351.547 277.733 365.074" style="fill:none;fill-opacity:0;stroke-width:2;stroke:#000"/></g><g id="g68"><line id="line70" x1="363.179" x2="383.772" y1="368.948" y2="355.292" style="fill:none;fill-opacity:0;stroke-width:2;stroke:#000"/><polygon id="polygon72" points="387.641 361.126 395.44 347.555 379.903 349.458" style="fill:#000"/><polygon id="polygon74" points="387.641 361.126 395.44 347.555 379.903 349.458" style="fill:none;fill-opacity:0;stroke-width:2;stroke:#000"/></g><g id="g76"><rect id="rect78" width="160" height="42" x="151.446" y="304" style="fill:#fff"/><rect id="rect80" width="160" height="42" x="151.446" y="304" style="fill:none;fill-opacity:0;stroke-width:2;stroke:#000"/></g><g id="g86"><rect id="rect88" width="160" height="42" x="147.446" y="300" style="fill:#fff"/><rect id="rect90" width="160" height="42" x="147.446" y="300" style="fill:none;fill-opacity:0;stroke-width:2;stroke:#000"/><text id="text92" x="227.446" y="325.85" font-size="16" style="fill:#000;text-anchor:middle;font-family:courier new;font-style:normal;font-weight:400"><tspan id="tspan94" x="227.446" y="325.85">@Format(...,)</tspan></text></g></svg>