<svg xmlns="http://www.w3.org/2000/svg" xmlns:svg="http://www.w3.org/2000/svg" id="svg3165" width="653.033" height="169.463" version="1.1" viewBox="146 238 708.102 185.99"><metadata id="metadata3267"/><defs id="defs3265"><marker style="overflow:visible" id="Arrow2Mend" orient="auto" refX="0" refY="0"><path style="fill-rule:evenodd;stroke-width:.625;stroke-linejoin:round" id="path4711" d="M 8.7185878,4.0337352 -2.2072895,0.01601326 8.7185884,-4.0017078 c -1.7454984,2.3720609 -1.7354408,5.6174519 -6e-7,8.035443 z" transform="scale(-0.6,-0.6)"/></marker><marker style="overflow:visible" id="Arrow2Lstart" orient="auto" refX="0" refY="0"><path style="fill-rule:evenodd;stroke-width:.625;stroke-linejoin:round" id="path4702" d="M 8.7185878,4.0337352 -2.2072895,0.01601326 8.7185884,-4.0017078 c -1.7454984,2.3720609 -1.7354408,5.6174519 -6e-7,8.035443 z" transform="matrix(1.1,0,0,1.1,1.1,0)"/></marker><marker style="overflow:visible" id="Arrow2Lend" orient="auto" refX="0" refY="0"><path style="fill-rule:evenodd;stroke-width:.625;stroke-linejoin:round" id="path4705" d="M 8.7185878,4.0337352 -2.2072895,0.01601326 8.7185884,-4.0017078 c -1.7454984,2.3720609 -1.7354408,5.6174519 -6e-7,8.035443 z" transform="matrix(-1.1,0,0,-1.1,-1.1,0)"/></marker><marker style="overflow:visible" id="Arrow1Lend" orient="auto" refX="0" refY="0"><path style="fill-rule:evenodd;stroke:#000;stroke-width:1pt" id="path4687" d="M 0,0 5,-5 -12.5,0 5,5 0,0 z" transform="matrix(-0.8,0,0,-0.8,-10,0)"/></marker><marker style="overflow:visible" id="Arrow1Lstart" orient="auto" refX="0" refY="0"><path style="fill-rule:evenodd;stroke:#000;stroke-width:1pt" id="path4684" d="M 0,0 5,-5 -12.5,0 5,5 0,0 z" transform="matrix(0.8,0,0,0.8,10,0)"/></marker></defs><g id="g3719" transform="translate(-71.255226,-76.322033)"><rect style="fill:none;stroke:#7f7f7f;stroke-width:2.01588821;stroke-opacity:1" id="rect3171" width="162.614" height="41.984" x="469.679" y="457.307"/><text style="font-size:16px;font-style:normal;font-weight:400;text-anchor:middle;fill:#7f7f7f;fill-opacity:1;font-family:courier new" id="text3173" x="550.779" y="481.739"><tspan style="font-size:12.07283974px;fill:#7f7f7f;fill-opacity:1" id="tspan3175" x="550.779" y="481.739">@I18nFormatBottom</tspan></text></g><g id="g3738" transform="translate(-199.09803,-230.40625)"><rect style="fill:none;stroke:#7f7f7f;stroke-width:2.01588821;stroke-opacity:1" id="rect3655" width="162.614" height="41.984" x="597.522" y="469.418"/><text style="font-size:16px;font-style:normal;font-weight:400;text-anchor:middle;fill:#7f7f7f;fill-opacity:1;font-family:courier new" id="text3209" x="678.233" y="493.85"><tspan style="font-size:12.07283974px;fill:#7f7f7f;fill-opacity:1" id="tspan3211" x="678.233" y="493.85">@I18nUnknownFormat</tspan></text></g><g id="g3705" transform="translate(-72.448842,-2.460269)"><rect style="fill:none;stroke:#7f7f7f;stroke-width:2.01588821;stroke-opacity:1" id="rect3657" width="162.614" height="41.984" x="205.368" y="141.13" transform="translate(186.27587,171.66547)"/><g id="g3177" transform="translate(72.412041,83.033086)"><g id="g3645" transform="translate(164.17706,1.3457136)"><text style="font-size:16px;font-style:normal;font-weight:400;text-anchor:middle;fill:#7f7f7f;fill-opacity:1;font-family:courier new" id="text3183" x="236.156" y="252.848"><tspan style="font-size:12.07283974px;fill:#7f7f7f;fill-opacity:1" id="tspan3185" x="236.156" y="252.848">@I18nInvalidFormat</tspan></text></g></g></g><g id="g3616" transform="translate(-14.301925,-59.370974)"><g id="g3213" transform="translate(9.4199955,69.697961)"><rect style="fill:#fff" id="rect3215" width="160" height="42" x="155.446" y="308"/><rect style="fill:none;stroke:#000;stroke-width:2" id="rect3217" width="160" height="42" x="155.446" y="308"/></g><g id="g3239" transform="translate(9.4199955,69.697961)"><rect style="fill:#fff" id="rect3241" width="160" height="42" x="151.446" y="304"/><rect style="fill:none;stroke:#000;stroke-width:2" id="rect3243" width="160" height="42" x="151.446" y="304"/></g><g id="g3249" transform="translate(9.4199955,69.697961)"><rect style="fill:#fff" id="rect3251" width="160" height="42" x="147.446" y="300"/><rect style="fill:none;stroke:#000;stroke-width:2" id="rect3253" width="160" height="42" x="147.446" y="300"/><text style="font-size:16px;font-style:normal;font-weight:400;text-anchor:middle;fill:#000;font-family:courier new" id="text3255" x="228.649" y="324.206"><tspan style="font-size:12.07283974px" id="tspan3257" x="228.649" y="324.206">@I18nFormat(...,)</tspan></text></g></g><g id="g3724" transform="translate(-58.662892,-76.566131)"><rect style="fill:none;stroke:#000;stroke-width:2.01588821" id="rect3663" width="162.614" height="41.984" x="554.482" y="386.901"/><text style="font-size:16px;font-style:normal;font-weight:400;text-anchor:middle;fill:#000;font-family:courier new" id="text3604" x="636.891" y="410.578"><tspan style="font-size:12.07283974px" id="tspan3606" x="636.891" y="410.578">@I18nFormatFor(&quot;#1&quot;)</tspan></text></g><g id="g3729" transform="translate(-87.751761,-7.9347528)"><rect style="fill:none;stroke:#000;stroke-width:2.01588821" id="rect3659" width="162.614" height="41.984" x="782.398" y="318.27"/><g id="g3608" transform="translate(339.57383,-14.936474)"><text style="font-size:16px;font-style:normal;font-weight:400;text-anchor:middle;fill:#000;font-family:courier new" id="text3612" x="525.234" y="356.883"><tspan style="font-size:12.07283974px" id="tspan3614" x="525.234" y="356.883">@I18nFormatFor(&quot;#n&quot;)</tspan></text></g></g><text style="font-size:14.0483942px;font-style:normal;font-variant:normal;font-weight:400;font-stretch:normal;line-height:125%;letter-spacing:0;word-spacing:0;fill:#000;fill-opacity:1;stroke:none;font-family:Courier New;-inkscape-font-specification:Courier New" id="text3743" x="665.431" y="332.005" xml:space="preserve"><tspan style="font-size:13.17036915px" id="tspan3745" x="665.431" y="332.005">...</tspan></text><path style="fill:none;stroke:#000;stroke-width:2.19506168;stroke-linecap:butt;stroke-linejoin:miter;stroke-miterlimit:4;stroke-opacity:1;stroke-dasharray:none;marker-mid:none;marker-end:url(#Arrow2Lend)" id="path3823" d="M 302.56407,312.75491 409.30768,280.99623"/><path style="fill:none;stroke:#000;stroke-width:2.19506168;stroke-linecap:butt;stroke-linejoin:miter;stroke-miterlimit:4;stroke-opacity:1;stroke-dasharray:none;marker-end:url(#Arrow2Lend)" id="path3825" d="m 423.95441,310.33493 32.59057,-29.3387"/><path style="fill:none;stroke:#000;stroke-width:2.19506168;stroke-linecap:butt;stroke-linejoin:miter;stroke-miterlimit:4;stroke-opacity:1;stroke-dasharray:none;marker-end:url(#Arrow2Lend)" id="path3827" d="m 548.59323,310.33493 -40.06364,-29.3387"/><path style="fill:none;stroke:#000;stroke-width:2.19506168;stroke-linecap:butt;stroke-linejoin:miter;stroke-miterlimit:4;stroke-opacity:1;stroke-dasharray:none;marker-end:url(#Arrow2Lend)" id="path3829" d="M 694.64655,311.7183 561.03732,279.54866"/><path style="fill:none;stroke:#000;stroke-width:2.19506168;stroke-linecap:butt;stroke-linejoin:miter;stroke-miterlimit:4;stroke-opacity:1;stroke-dasharray:none;marker-end:url(#Arrow2Lend)" id="path3833" d="M 400.12659,380.98491 310.56407,357.40619"/><path style="fill:none;stroke:#000;stroke-width:2.19506168;stroke-linecap:butt;stroke-linejoin:miter;stroke-miterlimit:4;stroke-opacity:1;stroke-dasharray:none;marker-end:url(#Arrow2Lend)" id="path3835" d="M 456.32291,380.98491 424.17649,352.31904"/><path style="fill:none;stroke:#000;stroke-width:2.19506168;stroke-linecap:butt;stroke-linejoin:miter;stroke-miterlimit:4;stroke-opacity:1;stroke-dasharray:none;marker-end:url(#Arrow2Lend)" id="path3839" d="m 508.80258,380.98491 39.51764,-28.66587"/><path style="fill:none;stroke:#000;stroke-width:2.19506168;stroke-linecap:butt;stroke-linejoin:miter;stroke-miterlimit:4;stroke-opacity:1;stroke-dasharray:none;marker-end:url(#Arrow2Lend)" id="path3841" d="M 561.03732,382.61685 694.64655,350.75069"/></svg>