<svg xmlns="http://www.w3.org/2000/svg" xmlns:xlink="http://www.w3.org/1999/xlink" width="23.5cm" height="6.5cm" viewBox="439 25 932 258"><g><rect width="241.15" height="42" x="539.424" y="160" style="fill:#fff"/><rect width="241.15" height="42" x="539.424" y="160" style="fill:none;fill-opacity:0;stroke-width:2;stroke:#000"/><text x="659.999" y="185.85" font-size="13" style="fill:#000;text-anchor:middle;font-family:courier new;font-style:normal;font-weight:400"><tspan x="659.999" y="185.85">@UnknownInitialization Date</tspan></text></g><g><rect width="311.65" height="42" x="504.176" y="35" style="fill:#fff"/><rect width="311.65" height="42" x="504.176" y="35" style="fill:none;fill-opacity:0;stroke-width:2;stroke:#000"/><text x="660.001" y="60.85" font-size="13" style="fill:#000;text-anchor:middle;font-family:courier new;font-style:normal;font-weight:400"><tspan x="660.001" y="60.85">@UnknownInitialization Object</tspan></text></g><g><line x1="525" x2="645.213" y1="100" y2="79.519" style="fill:none;fill-opacity:0;stroke-width:2;stroke:#000"/><polygon points="646.389 86.42 659.014 77.168 644.037 72.619" style="fill:#000"/><polygon points="646.389 86.42 659.014 77.168 644.037 72.619" style="fill:none;fill-opacity:0;stroke-width:2;stroke:#000"/></g><g><line x1="660" x2="660" y1="160" y2="92" style="fill:none;fill-opacity:0;stroke-width:2;stroke:#000"/><polygon points="667 92 660 78 653 92" style="fill:#000"/><polygon points="667 92 660 78 653 92" style="fill:none;fill-opacity:0;stroke-width:2;stroke:#000"/></g><g><line x1="797" x2="674.756" y1="102" y2="79.693" style="fill:none;fill-opacity:0;stroke-width:2;stroke:#000"/><polygon points="676.013 72.806 660.984 77.18 673.5 86.579" style="fill:#000"/><polygon points="676.013 72.806 660.984 77.18 673.5 86.579" style="fill:none;fill-opacity:0;stroke-width:2;stroke:#000"/></g><g><line x1="525" x2="525" y1="224.999" y2="157" style="fill:none;fill-opacity:0;stroke-width:2;stroke:#000"/><polygon points="532 157 525 143 518 157" style="fill:#000"/><polygon points="532 157 525 143 518 157" style="fill:none;fill-opacity:0;stroke-width:2;stroke:#000"/></g><g><line x1="795.038" x2="796.632" y1="224.036" y2="158.995" style="fill:none;fill-opacity:0;stroke-width:2;stroke:#000"/><polygon points="803.63 159.167 796.975 145 789.635 158.824" style="fill:#000"/><polygon points="803.63 159.167 796.975 145 789.635 158.824" style="fill:none;fill-opacity:0;stroke-width:2;stroke:#000"/></g><g><line x1="525" x2="645.232" y1="226" y2="204.626" style="fill:none;fill-opacity:0;stroke-width:2;stroke:#000"/><polygon points="646.457 211.517 659.015 202.175 644.006 197.734" style="fill:#000"/><polygon points="646.457 211.517 659.015 202.175 644.006 197.734" style="fill:none;fill-opacity:0;stroke-width:2;stroke:#000"/></g><g><line x1="794.5" x2="674.785" y1="225" y2="204.528" style="fill:none;fill-opacity:0;stroke-width:2;stroke:#000"/><polygon points="675.965 197.629 660.986 202.169 673.605 211.428" style="fill:#000"/><polygon points="675.965 197.629 660.986 202.169 673.605 211.428" style="fill:none;fill-opacity:0;stroke-width:2;stroke:#000"/></g><g><rect width="169.75" height="42" x="440.126" y="100" style="fill:#fff"/><rect width="169.75" height="42" x="440.126" y="100" style="fill:none;fill-opacity:0;stroke-width:2;stroke:#000"/><text x="525.001" y="125.85" font-size="13" style="fill:#000;text-anchor:middle;font-family:courier new;font-style:normal;font-weight:400"><tspan x="525.001" y="125.85">@Initialized Object</tspan></text></g><g><rect width="229.2" height="42" x="682.4" y="102" style="fill:#fff"/><rect width="229.2" height="42" x="682.4" y="102" style="fill:none;fill-opacity:0;stroke-width:2;stroke:#000"/><text x="797" y="127.85" font-size="13" style="fill:#000;text-anchor:middle;font-family:courier new;font-style:normal;font-weight:400"><tspan x="797" y="127.85">@UnderInitialization Object</tspan></text></g><g><rect width="160" height="42" x="445" y="226" style="fill:#fff"/><rect width="160" height="42" x="445" y="226" style="fill:none;fill-opacity:0;stroke-width:2;stroke:#000"/><text x="525" y="251.85" font-size="13" style="fill:#000;text-anchor:middle;font-family:courier new;font-style:normal;font-weight:400"><tspan x="525" y="251.85">@Initialized Date</tspan></text></g><g><rect width="229" height="42" x="680" y="225" style="fill:#fff"/><rect width="229" height="42" x="680" y="225" style="fill:none;fill-opacity:0;stroke-width:2;stroke:#000"/><text x="794.5" y="250.85" font-size="13" style="fill:#000;text-anchor:middle;font-family:courier new;font-style:normal;font-weight:400"><tspan x="794.5" y="250.85">@UnderInitialization Date</tspan></text></g><g><rect width="374" height="42" x="995.5" y="26.1" style="fill:#fff"/><rect width="374" height="42" x="995.5" y="26.1" style="fill:none;fill-opacity:0;stroke-width:2;stroke:#000"/><text x="1182.5" y="51.95" font-size="13" style="fill:#000;text-anchor:middle;font-family:courier new;font-style:normal;font-weight:400"><tspan x="1182.5" y="51.95">@UnderInitialization(Object.class) Giraffe</tspan></text></g><g><rect width="373.5" height="42" x="996.05" y="97.7" style="fill:#fff"/><rect width="373.5" height="42" x="996.05" y="97.7" style="fill:none;fill-opacity:0;stroke-width:2;stroke:#000"/><text x="1182.8" y="123.55" font-size="13" style="fill:#000;text-anchor:middle;font-family:courier new;font-style:normal;font-weight:400"><tspan x="1182.8" y="123.55">@UnderInitialization(Vertebrate.class) Giraffe</tspan></text></g><g><rect width="374.052" height="42" x="995.5" y="167.3" style="fill:#fff"/><rect width="374.052" height="42" x="995.5" y="167.3" style="fill:none;fill-opacity:0;stroke-width:2;stroke:#000"/><text x="1182.53" y="193.15" font-size="13" style="fill:#000;text-anchor:middle;font-family:courier new;font-style:normal;font-weight:400"><tspan x="1182.53" y="193.15">@UnderInitialization(Mammal.class) Giraffe</tspan></text></g><g><rect width="373.552" height="42" x="996" y="239.9" style="fill:#fff"/><rect width="373.552" height="42" x="996" y="239.9" style="fill:none;fill-opacity:0;stroke-width:2;stroke:#000"/><text x="1182.78" y="265.75" font-size="13" style="fill:#000;text-anchor:middle;font-family:courier new;font-style:normal;font-weight:400"><tspan x="1182.78" y="265.75">@UnderInitialization(Giraffe.class) Giraffe</tspan></text></g><g><line x1="1182.8" x2="1182.65" y1="97.7" y2="83.099" style="fill:none;fill-opacity:0;stroke-width:2;stroke:#000"/><polygon points="1189.65 83.028 1182.51 69.1 1175.65 83.17" style="fill:#000"/><polygon points="1189.65 83.028 1182.51 69.1 1175.65 83.17" style="fill:none;fill-opacity:0;stroke-width:2;stroke:#000"/></g><g><line x1="1182.53" x2="1182.65" y1="167.3" y2="154.699" style="fill:none;fill-opacity:0;stroke-width:2;stroke:#000"/><polygon points="1189.65 154.769 1182.79 140.7 1175.65 154.63" style="fill:#000"/><polygon points="1189.65 154.769 1182.79 140.7 1175.65 154.63" style="fill:none;fill-opacity:0;stroke-width:2;stroke:#000"/></g><g><line x1="1182.78" x2="1182.65" y1="239.9" y2="224.299" style="fill:none;fill-opacity:0;stroke-width:2;stroke:#000"/><polygon points="1189.65 224.242 1182.53 210.3 1175.65 224.357" style="fill:#000"/><polygon points="1189.65 224.242 1182.53 210.3 1175.65 224.357" style="fill:none;fill-opacity:0;stroke-width:2;stroke:#000"/></g></svg>