<svg xmlns="http://www.w3.org/2000/svg" xmlns:svg="http://www.w3.org/2000/svg" id="svg3577" width="183.345" height="283" version="1.1" viewBox="358 100 152.46 374.385"><metadata id="metadata3693"/><g id="g3589" transform="translate(-27.314388,-18.999996)"><rect id="rect3591" width="201" height="44" x="360" y="120" style="fill:#fff"/><rect id="rect3593" width="240.367" height="43.817" x="340.916" y="120.091" style="fill:none;fill-opacity:0;stroke:#7f7f7f;stroke-width:2.18256378;stroke-opacity:1"/><text id="text3595" x="460.5" y="146.772" font-size="15.804" style="font-style:normal;font-weight:400;font-size:14.32277775px;font-family:'courier new';text-anchor:middle;fill:#7f7f7f;fill-opacity:1"><tspan style="font-size:21.16666603px;fill:#7f7f7f;fill-opacity:1" id="tspan3597" x="460.5" y="146.772">@LowerBoundUnknown</tspan></text></g><g id="g3657" transform="translate(-27.314388,-17.999786)"><line id="line3659" x1="460.5" x2="460.5" y1="200" y2="173.736" style="fill:none;fill-opacity:0;stroke:#000;stroke-width:2"/><polygon id="polygon3661" points="460.5 173.736 455.5 176.236 460.5 166.236 465.5 176.236" style="fill:#000"/><polygon id="polygon3663" points="460.5 173.736 455.5 176.236 460.5 166.236 465.5 176.236" style="fill:none;fill-opacity:0;stroke:#000;stroke-width:2"/></g><rect id="rect3559" width="201" height="44" x="332.686" y="347.001" style="fill:#fff"/><rect id="rect3561" width="136.626" height="44.345" x="364.872" y="346.829" style="fill:#000;fill-opacity:0;stroke:#7f7f7f;stroke-width:1.65556252;stroke-miterlimit:4;stroke-dasharray:none;stroke-opacity:1"/><text id="text3563" x="433.186" y="373.773" font-size="15.804" style="font-style:normal;font-weight:400;font-size:15.80440044px;font-family:'courier new';text-anchor:middle;fill:#7f7f7f;fill-opacity:1"><tspan id="tspan3565" x="433.186" y="373.773" style="font-size:21.16666603px;fill:#000;fill-opacity:1">@Positive</tspan></text><g id="g3631" transform="translate(-7.1410873,149.91457)"><rect style="fill:none;fill-opacity:0;stroke:#000;stroke-width:.91046369;stroke-miterlimit:4;stroke-dasharray:none" id="rect3583" width="214.142" height="42.655" x="332.656" y="33.758"/><text style="font-style:normal;font-weight:400;font-size:15.80440044px;font-family:'courier new';text-anchor:middle;fill:#000" id="text3585" x="441.77" y="56.766" font-size="15.804"><tspan style="font-size:21.16666603px" id="tspan3587" x="441.77" y="56.766">@GTENegativeOne</tspan></text></g><g id="g3590" transform="translate(-27.314398,146.00089)"><line style="fill:none;fill-opacity:0;stroke:#000;stroke-width:2" id="line3592" x1="460.5" x2="460.5" y1="200" y2="173.736"/><polygon style="fill:#000" id="polygon3594" points="460.5 173.736 455.5 176.236 460.5 166.236 465.5 176.236"/><polygon style="fill:none;fill-opacity:0;stroke:#000;stroke-width:2" id="polygon3596" points="460.5 173.736 455.5 176.236 460.5 166.236 465.5 176.236"/></g><g id="g4844" transform="translate(-36.110367,231.91491)"><rect id="rect4846" width="187.681" height="43.33" x="374.856" y="33.421" style="fill:none;fill-opacity:0;stroke:#000;stroke-width:1.05518711;stroke-miterlimit:4;stroke-dasharray:none"/><text id="text4848" x="469.175" y="56.766" font-size="15.804" style="font-style:normal;font-weight:400;font-size:21.16666603px;font-family:'courier new';text-anchor:middle;fill:#000"><tspan style="font-size:21.16666603px" id="tspan4850" x="469.175" y="56.766">@NonNegative</tspan></text></g><g id="g4856" transform="translate(-27.314388,64.000554)"><line style="fill:none;fill-opacity:0;stroke:#000;stroke-width:2" id="line4858" x1="460.5" x2="460.5" y1="200" y2="173.736"/><polygon style="fill:#000" id="polygon4860" points="460.5 166.236 465.5 176.236 460.5 173.736 455.5 176.236"/><polygon style="fill:none;fill-opacity:0;stroke:#000;stroke-width:2" id="polygon4862" points="460.5 166.236 465.5 176.236 460.5 173.736 455.5 176.236"/></g><path id="path5762" style="fill:#000;fill-opacity:1;stroke:#000;stroke-width:1.19848609"/><path id="path5764" d="m 364.20294,368.94265 0,-22.92105 69.06275,0 69.06277,0 0,22.92105 0,22.92104 -69.06277,0 -69.06275,0 0,-22.92104 z m 136.62741,0 0,-21.42294 -67.56466,0 -67.56465,0 0,21.42294 0,21.42293 67.56465,0 67.56466,0 0,-21.42293 z" style="fill:#000;fill-opacity:1;stroke:#000;stroke-width:.29962152"/><g id="g3375" transform="translate(-24.917416,308.18666)"><rect style="fill:#fff" id="rect3377" width="201" height="44" x="360" y="120"/><rect style="fill:none;fill-opacity:0;stroke:#7f7f7f;stroke-width:2.18256378;stroke-opacity:1" id="rect3379" width="240.367" height="43.817" x="338.519" y="121.29"/><text style="font-style:normal;font-weight:400;font-size:14.32277775px;font-family:'courier new';text-anchor:middle;fill:#7f7f7f;fill-opacity:1" id="text3381" x="458.103" y="146.772" font-size="15.804"><tspan id="tspan3383" x="458.103" y="146.772" style="font-size:21.16666603px;fill:#7f7f7f;fill-opacity:1">@LowerBoundBottom</tspan></text></g><g id="g3385" transform="translate(-28.512884,226.29944)"><line id="line3387" x1="460.5" x2="460.5" y1="200" y2="173.736" style="fill:none;fill-opacity:0;stroke:#000;stroke-width:2"/><polygon id="polygon3389" points="455.5 176.236 460.5 166.236 465.5 176.236 460.5 173.736" style="fill:#000"/><polygon id="polygon3391" points="455.5 176.236 460.5 166.236 465.5 176.236 460.5 173.736" style="fill:none;fill-opacity:0;stroke:#000;stroke-width:2"/></g></svg>