<svg xmlns="http://www.w3.org/2000/svg" xmlns:svg="http://www.w3.org/2000/svg" id="svg3577" width="1050.383" height="220.725" version="1.1" viewBox="358 100 873.443 292.001"><metadata id="metadata3693"/><g id="g3589" transform="translate(333.36558,-19)"><rect id="rect3591" width="201" height="44" x="360" y="120" style="fill:#fff"/><rect id="rect3593" width="201" height="44" x="360" y="120" style="fill:none;fill-opacity:0;stroke:#7f7f7f;stroke-width:2;stroke-opacity:1"/><text id="text3595" x="460.5" y="146.772" font-size="15.804" style="font-style:normal;font-weight:400;font-size:14.32277775px;font-family:'courier new';text-anchor:middle;fill:#7f7f7f;fill-opacity:1"><tspan style="font-size:21.16666603px;fill:#7f7f7f;fill-opacity:1" id="tspan3597" x="460.5" y="146.772">@UnknownMethod</tspan></text></g><g id="g3657" transform="translate(333.36558,-17.999791)"><line id="line3659" x1="460.5" x2="460.5" y1="200" y2="173.736" style="fill:none;fill-opacity:0;stroke:#000;stroke-width:2"/><polygon id="polygon3661" points="460.5 166.236 465.5 176.236 460.5 173.736 455.5 176.236" style="fill:#000"/><polygon id="polygon3663" points="460.5 166.236 465.5 176.236 460.5 173.736 455.5 176.236" style="fill:none;fill-opacity:0;stroke:#000;stroke-width:2"/></g><rect id="rect3559" width="201" height="44" x="693.366" y="347.001" style="fill:#fff"/><rect id="rect3561" width="211.735" height="43.948" x="688.597" y="347.027" style="fill:none;fill-opacity:0;stroke:#7f7f7f;stroke-width:2.05175543;stroke-miterlimit:4;stroke-dasharray:none;stroke-opacity:1"/><text id="text3563" x="793.866" y="373.773" font-size="15.804" style="font-style:normal;font-weight:400;font-size:15.80440044px;font-family:'courier new';text-anchor:middle;fill:#7f7f7f;fill-opacity:1"><tspan id="tspan3565" x="793.866" y="373.773" style="font-size:21.16666603px;fill:#7f7f7f;fill-opacity:1">@MethodValBottom</tspan></text><g id="g3631" transform="translate(353.53888,149.91457)"><rect style="fill:none;fill-opacity:0;stroke:#000;stroke-width:2.27986622;stroke-miterlimit:4;stroke-dasharray:none" id="rect3583" width="1387.289" height="41.285" x="-250.322" y="34.443"/><text style="font-style:normal;font-weight:400;font-size:15.80440044px;font-family:'courier new';text-anchor:middle;fill:#000" id="text3585" x="441.77" y="56.766" font-size="15.804"><tspan style="font-size:21.16666603px" id="tspan3587" x="441.77" y="56.766">@MethodVal(className={&quot;java.lang.String&quot;, &quot;java.lang.String&quot;},methodName={&quot;toString&quot;,&quot;equals&quot;},params={0,1})</tspan></text></g><g id="g3590" transform="translate(333.36557,146.00089)"><line style="fill:none;fill-opacity:0;stroke:#000;stroke-width:2" id="line3592" x1="460.5" x2="460.5" y1="200" y2="173.736"/><polygon style="fill:#000" id="polygon3594" points="460.5 166.236 465.5 176.236 460.5 173.736 455.5 176.236"/><polygon style="fill:none;fill-opacity:0;stroke:#000;stroke-width:2" id="polygon3596" points="460.5 166.236 465.5 176.236 460.5 173.736 455.5 176.236"/></g><path style="fill:none;fill-rule:evenodd;stroke:#000;stroke-width:1.41111112px;stroke-linecap:butt;stroke-linejoin:miter;stroke-opacity:1" id="path4201" d="m 728.20565,313.69628 0,0"/><g id="g4844" transform="translate(324.5696,231.91491)"><rect id="rect4846" width="882.8" height="42.128" x="26.697" y="34.022" style="fill:none;fill-opacity:0;stroke:#000;stroke-width:2.25654793;stroke-miterlimit:4;stroke-dasharray:none"/><text id="text4848" x="469.175" y="56.766" font-size="15.804" style="font-style:normal;font-weight:400;font-size:21.16666603px;font-family:'courier new';text-anchor:middle;fill:#000"><tspan style="font-size:21.16666603px" id="tspan4850" x="469.175" y="56.766">@MethodVal(className=&quot;java.lang.String&quot;,methodName=&quot;equals&quot;,params=1)</tspan></text></g><g id="g4856" transform="translate(333.36558,64.000552)"><line style="fill:none;fill-opacity:0;stroke:#000;stroke-width:2" id="line4858" x1="460.5" x2="460.5" y1="200" y2="173.736"/><polygon style="fill:#000" id="polygon4860" points="460.5 173.736 455.5 176.236 460.5 166.236 465.5 176.236"/><polygon style="fill:none;fill-opacity:0;stroke:#000;stroke-width:2" id="polygon4862" points="460.5 173.736 455.5 176.236 460.5 166.236 465.5 176.236"/></g></svg>