<svg xmlns="http://www.w3.org/2000/svg" xmlns:xlink="http://www.w3.org/1999/xlink" width="10.5cm" height="4.5cm" viewBox="619 259 402 165"><g><rect width="160" height="42" x="620" y="320" style="fill:#fff"/><rect width="160" height="42" x="620" y="320" style="fill:none;fill-opacity:0;stroke-width:2;stroke:#000"/><text x="700" y="345.85" font-size="16" style="fill:#000;text-anchor:middle;font-family:courier new;font-style:normal;font-weight:400"><tspan x="700" y="345.85">@NonRaw Object</tspan></text></g><g><rect width="160" height="42" x="860" y="320" style="fill:#fff"/><rect width="160" height="42" x="860" y="320" style="fill:none;fill-opacity:0;stroke-width:2;stroke:#000"/><text x="940" y="345.85" font-size="16" style="fill:#000;text-anchor:middle;font-family:courier new;font-style:normal;font-weight:400"><tspan x="940" y="345.85">@Raw Date</tspan></text></g><g><rect width="160" height="42" x="740" y="260" style="fill:#fff"/><rect width="160" height="42" x="740" y="260" style="fill:none;fill-opacity:0;stroke-width:2;stroke:#000"/><text x="820" y="285.85" font-size="16" style="fill:#000;text-anchor:middle;font-family:courier new;font-style:normal;font-weight:400"><tspan x="820" y="285.85">@Raw Object</tspan></text></g><g><line x1="700" x2="805.166" y1="320" y2="304.225" style="fill:none;fill-opacity:0;stroke-width:2;stroke:#000"/><polygon points="806.204 311.148 819.011 302.148 804.128 297.303" style="fill:#000"/><polygon points="806.204 311.148 819.011 302.148 804.128 297.303" style="fill:none;fill-opacity:0;stroke-width:2;stroke:#000"/></g><g><line x1="940" x2="834.834" y1="320" y2="304.225" style="fill:none;fill-opacity:0;stroke-width:2;stroke:#000"/><polygon points="835.872 297.303 820.989 302.148 833.796 311.148" style="fill:#000"/><polygon points="835.872 297.303 820.989 302.148 833.796 311.148" style="fill:none;fill-opacity:0;stroke-width:2;stroke:#000"/></g><g><line x1="820" x2="714.834" y1="380" y2="364.225" style="fill:none;fill-opacity:0;stroke-width:2;stroke:#000"/><polygon points="715.872 357.303 700.989 362.148 713.796 371.148" style="fill:#000"/><polygon points="715.872 357.303 700.989 362.148 713.796 371.148" style="fill:none;fill-opacity:0;stroke-width:2;stroke:#000"/></g><g><line x1="820" x2="925.166" y1="380" y2="364.225" style="fill:none;fill-opacity:0;stroke-width:2;stroke:#000"/><polygon points="926.204 371.148 939.011 362.148 924.128 357.303" style="fill:#000"/><polygon points="926.204 371.148 939.011 362.148 924.128 357.303" style="fill:none;fill-opacity:0;stroke-width:2;stroke:#000"/></g><g><rect width="160" height="42" x="740" y="380" style="fill:#fff"/><rect width="160" height="42" x="740" y="380" style="fill:none;fill-opacity:0;stroke-width:2;stroke:#000"/><text x="820" y="405.85" font-size="16" style="fill:#000;text-anchor:middle;font-family:courier new;font-style:normal;font-weight:400"><tspan x="820" y="405.85">@NonRaw Date</tspan></text></g></svg>