<svg xmlns="http://www.w3.org/2000/svg" xmlns:xlink="http://www.w3.org/1999/xlink" width="5.5cm" height="11.5cm" viewBox="358 38 204 447"><g><rect width="201" height="44" x="360" y="40" style="fill:#fff"/><rect width="201" height="44" x="360" y="40" style="fill:none;fill-opacity:0;stroke-width:2;stroke:#7f7f7f"/><text x="460.5" y="66.772" font-size="15.804" style="fill:#7f7f7f;text-anchor:middle;font-family:courier new;font-style:normal;font-weight:400"><tspan x="460.5" y="66.772">@UnknownRegex</tspan></text></g><g><rect width="201" height="44" x="360" y="120" style="fill:#fff"/><rect width="201" height="44" x="360" y="120" style="fill:none;fill-opacity:0;stroke-width:2;stroke:#000"/><text x="460.5" y="146.772" font-size="15.804" style="fill:#000;text-anchor:middle;font-family:courier new;font-style:normal;font-weight:400"><tspan x="460.5" y="146.772">@Regex(0) = @Regex</tspan></text></g><g><rect width="201" height="44" x="360" y="280" style="fill:#fff"/><rect width="201" height="44" x="360" y="280" style="fill:none;fill-opacity:0;stroke-width:2;stroke:#000"/><text x="460.5" y="306.772" font-size="15.804" style="fill:#000;text-anchor:middle;font-family:courier new;font-style:normal;font-weight:400"><tspan x="460.5" y="306.772">@Regex(2)</tspan></text></g><g><rect width="201" height="44" x="360" y="200" style="fill:#fff"/><rect width="201" height="44" x="360" y="200" style="fill:none;fill-opacity:0;stroke-width:2;stroke:#000"/><text x="460.5" y="226.772" font-size="15.804" style="fill:#000;text-anchor:middle;font-family:courier new;font-style:normal;font-weight:400"><tspan x="460.5" y="226.772">@Regex(1)</tspan></text></g><g><rect width="201" height="44" x="360" y="440" style="fill:#fff"/><rect width="201" height="44" x="360" y="440" style="fill:none;fill-opacity:0;stroke-width:2;stroke:#7f7f7f"/><text x="460.5" y="466.772" font-size="15.804" style="fill:#7f7f7f;text-anchor:middle;font-family:courier new;font-style:normal;font-weight:400"><tspan x="460.5" y="466.772">@RegexBottom</tspan></text></g><g><line x1="460.5" x2="460.5" y1="120" y2="93.736" style="fill:none;fill-opacity:0;stroke-width:2;stroke:#000"/><polygon points="460.5 86.236 465.5 96.236 460.5 93.736 455.5 96.236" style="fill:#000"/><polygon points="460.5 86.236 465.5 96.236 460.5 93.736 455.5 96.236" style="fill:none;fill-opacity:0;stroke-width:2;stroke:#000"/></g><g><line x1="460" x2="460.365" y1="360" y2="333.735" style="fill:none;fill-opacity:0;stroke-width:2;stroke:#000"/><polygon points="460.469 326.236 465.33 336.304 460.365 333.735 455.331 336.165" style="fill:#000"/><polygon points="460.469 326.236 465.33 336.304 460.365 333.735 455.331 336.165" style="fill:none;fill-opacity:0;stroke-width:2;stroke:#000"/></g><g><line x1="460.5" x2="460.5" y1="280" y2="253.736" style="fill:none;fill-opacity:0;stroke-width:2;stroke:#000"/><polygon points="460.5 246.236 465.5 256.236 460.5 253.736 455.5 256.236" style="fill:#000"/><polygon points="460.5 246.236 465.5 256.236 460.5 253.736 455.5 256.236" style="fill:none;fill-opacity:0;stroke-width:2;stroke:#000"/></g><g><line x1="460.5" x2="460.5" y1="200" y2="173.736" style="fill:none;fill-opacity:0;stroke-width:2;stroke:#000"/><polygon points="460.5 166.236 465.5 176.236 460.5 173.736 455.5 176.236" style="fill:#000"/><polygon points="460.5 166.236 465.5 176.236 460.5 173.736 455.5 176.236" style="fill:none;fill-opacity:0;stroke-width:2;stroke:#000"/></g><g><line x1="460.5" x2="460.127" y1="440" y2="411.491" style="fill:none;fill-opacity:0;stroke-width:2;stroke:#000"/><polygon points="460.029 403.992 465.16 413.926 460.127 411.491 455.16 414.056" style="fill:#000"/><polygon points="460.029 403.992 465.16 413.926 460.127 411.491 455.16 414.056" style="fill:none;fill-opacity:0;stroke-width:2;stroke:#000"/></g><text x="458.11" y="372.72" font-size="12.8" style="fill:#000;text-anchor:start;font-family:courier new;font-style:normal;font-weight:400"><tspan x="458.11" y="372.72">.</tspan></text><text x="458.078" y="381.66" font-size="12.8" style="fill:#000;text-anchor:start;font-family:courier new;font-style:normal;font-weight:400"><tspan x="458.078" y="381.66">.</tspan></text><text x="458.134" y="389.92" font-size="12.8" style="fill:#000;text-anchor:start;font-family:courier new;font-style:normal;font-weight:400"><tspan x="458.134" y="389.92">.</tspan></text></svg>