<svg xmlns="http://www.w3.org/2000/svg" xmlns:svg="http://www.w3.org/2000/svg" id="svg3577" width="298.489" height="222.848" version="1.1" viewBox="358 100 248.208 294.809"><metadata id="metadata3693"/><g id="g3589" transform="translate(24.600084,-18.999985)"><rect id="rect3591" width="201" height="44" x="360" y="120" style="fill:#fff"/><rect id="rect3593" width="240.367" height="43.817" x="340.916" y="120.091" style="fill:none;fill-opacity:0;stroke:#7f7f7f;stroke-width:2.18256378;stroke-opacity:1"/><text id="text3595" x="460.5" y="146.772" font-size="15.804" style="font-style:normal;font-weight:400;font-size:14.32277775px;font-family:'courier new';text-anchor:middle;fill:#7f7f7f;fill-opacity:1"><tspan style="font-size:21.16666603px;fill:#7f7f7f;fill-opacity:1" id="tspan3597" x="460.5" y="146.772">@SameLenUnknown</tspan></text></g><g id="g3657" transform="translate(27.142456,149.79682)"><line id="line3659" x1="460.5" x2="460.5" y1="200" y2="173.736" style="fill:none;fill-opacity:0;stroke:#000;stroke-width:2"/><polygon id="polygon3661" points="465.5 176.236 460.5 173.736 455.5 176.236 460.5 166.236" style="fill:#000"/><polygon id="polygon3663" points="465.5 176.236 460.5 173.736 455.5 176.236 460.5 166.236" style="fill:none;fill-opacity:0;stroke:#000;stroke-width:2"/></g><text id="text3563" x="489.337" y="376.581" font-size="15.804" style="font-style:normal;font-weight:400;font-size:15.80440044px;font-family:'courier new';text-anchor:middle;fill:#7f7f7f;fill-opacity:1"><tspan id="tspan3565" x="489.337" y="376.581" style="font-size:21.16666603px;fill:#7f7f7f;fill-opacity:1">@SameLenBottom</tspan></text><path style="fill:none;fill-rule:evenodd;stroke:#000;stroke-width:1.41111112px;stroke-linecap:butt;stroke-linejoin:miter;stroke-opacity:1" id="path4201" d="m 604.16876,233.39773 0,0"/><g id="g4844" transform="translate(28.636421,155.35292)"><rect id="rect4846" width="176.925" height="43.36" x="257.389" y="31.009" style="fill:none;fill-opacity:0;stroke:#000;stroke-width:1.024863;stroke-miterlimit:4;stroke-dasharray:none"/><text id="text4848" x="348.128" y="55.567" font-size="15.804" style="font-style:normal;font-weight:400;font-size:21.16666603px;font-family:'courier new';text-anchor:middle;fill:#000"><tspan style="font-size:21.16666603px" id="tspan4850" x="348.128" y="55.567">@SameLen(&quot;a&quot;)</tspan></text></g><g id="g4330" transform="translate(245.56238,155.35292)"><rect style="fill:none;fill-opacity:0;stroke:#000;stroke-width:1.024863;stroke-miterlimit:4;stroke-dasharray:none" id="rect4332" width="176.925" height="43.36" x="257.389" y="31.009"/><text style="font-style:normal;font-weight:400;font-size:21.16666603px;font-family:'courier new';text-anchor:middle;fill:#000" id="text4334" x="348.128" y="55.567" font-size="15.804"><tspan id="tspan4336" x="348.128" y="55.567" style="font-size:21.16666603px">@SameLen(&quot;b&quot;)</tspan></text></g><path id="path4342" d="m 501.09897,181.86283 0,0" style="fill:none;fill-rule:evenodd;stroke:#000;stroke-width:1.41111112px;stroke-linecap:butt;stroke-linejoin:miter;stroke-opacity:1"/><g id="g4344" transform="translate(143.34003,239.2555)"><rect id="rect4346" width="266.522" height="43.13" x="212.022" y="31.124" style="fill:none;fill-opacity:0;stroke:#000;stroke-width:1.25453866;stroke-miterlimit:4;stroke-dasharray:none"/><text id="text4348" x="348.128" y="55.567" font-size="15.804" style="font-style:normal;font-weight:400;font-size:21.16666603px;font-family:'courier new';text-anchor:middle;fill:#000"><tspan style="font-size:21.16666603px" id="tspan4350" x="348.128" y="55.567">@SameLen({&quot;a&quot;, &quot;b&quot;})</tspan></text></g><g id="g4375" transform="matrix(0.57937742,0.81505938,-0.81505938,0.57937742,345.91225,-324.02303)"><line id="line4377" x1="460.5" x2="460.5" y1="200" y2="173.736" style="fill:none;fill-opacity:0;stroke:#000;stroke-width:2"/><polygon id="polygon4379" points="455.5 176.236 460.5 166.236 465.5 176.236 460.5 173.736" style="fill:#000"/><polygon id="polygon4381" points="455.5 176.236 460.5 166.236 465.5 176.236 460.5 173.736" style="fill:none;fill-opacity:0;stroke:#000;stroke-width:2"/></g><path id="path4397" d="m 452.17656,165.75609 -30.10954,20.41858 z" style="fill:none;fill-rule:evenodd;stroke:#000;stroke-width:1.47461903px;stroke-linecap:butt;stroke-linejoin:miter;stroke-opacity:1"/><path style="fill:none;fill-rule:evenodd;stroke:#000;stroke-width:1.47461903px;stroke-linecap:butt;stroke-linejoin:miter;stroke-opacity:1" id="path4401" d="m 450.67845,166.05571 -30.10954,20.41858 z"/><g id="g4427" transform="matrix(-1,0,0,1,898.42972,-83.70148)"><g id="g4403" transform="matrix(0.57937742,0.81505938,-0.81505938,0.57937742,347.01661,-157.87422)"><line id="line4405" x1="460.5" x2="460.5" y1="200" y2="173.736" style="fill:none;fill-opacity:0;stroke:#000;stroke-width:2"/><polygon id="polygon4407" points="465.5 176.236 460.5 173.736 455.5 176.236 460.5 166.236" style="fill:#000"/><polygon id="polygon4409" points="465.5 176.236 460.5 173.736 455.5 176.236 460.5 166.236" style="fill:none;fill-opacity:0;stroke:#000;stroke-width:2"/></g><path id="path4423" d="m 453.28092,331.9049 -30.10954,20.41858 z" style="fill:none;fill-rule:evenodd;stroke:#000;stroke-width:1.47461903px;stroke-linecap:butt;stroke-linejoin:miter;stroke-opacity:1"/><path style="fill:none;fill-rule:evenodd;stroke:#000;stroke-width:1.47461903px;stroke-linecap:butt;stroke-linejoin:miter;stroke-opacity:1" id="path4425" d="M 451.78281,332.20452 421.67327,352.6231 Z"/></g><g id="g4443" transform="translate(78.375978,-83.70148)"><g id="g4445" transform="matrix(0.57937742,0.81505938,-0.81505938,0.57937742,347.01661,-157.87422)"><line style="fill:none;fill-opacity:0;stroke:#000;stroke-width:2" id="line4447" x1="460.5" x2="460.5" y1="200" y2="173.736"/><polygon style="fill:#000" id="polygon4449" points="460.5 166.236 465.5 176.236 460.5 173.736 455.5 176.236"/><polygon style="fill:none;fill-opacity:0;stroke:#000;stroke-width:2" id="polygon4451" points="460.5 166.236 465.5 176.236 460.5 173.736 455.5 176.236"/></g><path style="fill:none;fill-rule:evenodd;stroke:#000;stroke-width:1.47461903px;stroke-linecap:butt;stroke-linejoin:miter;stroke-opacity:1" id="path4453" d="m 453.28092,331.9049 -30.10954,20.41858 z"/><path id="path4455" d="M 451.78281,332.20452 421.67327,352.6231 Z" style="fill:none;fill-rule:evenodd;stroke:#000;stroke-width:1.47461903px;stroke-linecap:butt;stroke-linejoin:miter;stroke-opacity:1"/></g><rect id="rect3561" width="230.822" height="43.86" x="374.525" y="349.879" style="fill:none;fill-opacity:0;stroke:#7f7f7f;stroke-width:2.14008689;stroke-miterlimit:4;stroke-dasharray:none;stroke-opacity:1"/><g id="g4457" transform="matrix(-1,0,0,1,981.48056,-166.75232)"><g id="g4459" transform="matrix(0.57937742,0.81505938,-0.81505938,0.57937742,347.01661,-157.87422)"><line style="fill:none;fill-opacity:0;stroke:#000;stroke-width:2" id="line4461" x1="460.5" x2="460.5" y1="200" y2="173.736"/><polygon style="fill:#000" id="polygon4463" points="460.5 173.736 455.5 176.236 460.5 166.236 465.5 176.236"/><polygon style="fill:none;fill-opacity:0;stroke:#000;stroke-width:2" id="polygon4465" points="460.5 173.736 455.5 176.236 460.5 166.236 465.5 176.236"/></g><path style="fill:none;fill-rule:evenodd;stroke:#000;stroke-width:1.47461903px;stroke-linecap:butt;stroke-linejoin:miter;stroke-opacity:1" id="path4467" d="m 453.28092,331.9049 -30.10954,20.41858 z"/><path id="path4469" d="M 451.78281,332.20452 421.67327,352.6231 Z" style="fill:none;fill-rule:evenodd;stroke:#000;stroke-width:1.47461903px;stroke-linecap:butt;stroke-linejoin:miter;stroke-opacity:1"/></g></svg>