<svg xmlns="http://www.w3.org/2000/svg" xmlns:svg="http://www.w3.org/2000/svg" id="svg3577" width="492.361" height="285.953" version="1.1" viewBox="358 100 409.421 378.292"><metadata id="metadata3693"/><g id="g3589" transform="translate(108.80225,-18.999998)"><rect id="rect3591" width="201" height="44" x="360" y="120" style="fill:#fff"/><rect id="rect3593" width="261.847" height="43.724" x="328.977" y="120.138" style="fill:none;fill-opacity:0;stroke:#7f7f7f;stroke-width:2.27557755;stroke-opacity:1"/><text id="text3595" x="460.5" y="146.772" font-size="15.804" style="font-style:normal;font-weight:400;font-size:14.32277775px;font-family:'courier new';text-anchor:middle;fill:#7f7f7f;fill-opacity:1"><tspan style="font-size:21.16666603px;fill:#7f7f7f;fill-opacity:1" id="tspan3597" x="460.5" y="146.772">@SearchIndexUnknown</tspan></text></g><g id="g3657" transform="translate(108.80225,-17.999789)"><line id="line3659" x1="460.5" x2="460.5" y1="200" y2="173.736" style="fill:none;fill-opacity:0;stroke:#000;stroke-width:2"/><polygon id="polygon3661" points="460.5 173.736 455.5 176.236 460.5 166.236 465.5 176.236" style="fill:#000"/><polygon id="polygon3663" points="460.5 173.736 455.5 176.236 460.5 166.236 465.5 176.236" style="fill:none;fill-opacity:0;stroke:#000;stroke-width:2"/></g><rect id="rect3559" width="201" height="44" x="472.398" y="433.292" style="fill:#fff"/><rect id="rect3561" width="249.913" height="43.776" x="448.54" y="433.404" style="fill:none;fill-opacity:0;stroke:#7f7f7f;stroke-width:2.22468281;stroke-miterlimit:4;stroke-dasharray:none;stroke-opacity:1"/><text id="text3563" x="572.898" y="460.064" font-size="15.804" style="font-style:normal;font-weight:400;font-size:15.80440044px;font-family:'courier new';text-anchor:middle;fill:#7f7f7f;fill-opacity:1"><tspan id="tspan3565" x="572.898" y="460.064" style="font-size:21.16666603px;fill:#7f7f7f;fill-opacity:1">@SearchIndexBottom</tspan></text><path style="fill:none;fill-rule:evenodd;stroke:#000;stroke-width:1.41111112px;stroke-linecap:butt;stroke-linejoin:miter;stroke-opacity:1" id="path4201" d="m 644.33511,399.98726 0,0"/><g id="g4844" transform="translate(100.00627,151.61634)"><rect id="rect4846" width="240.278" height="43.193" x="346.161" y="33.489" style="fill:none;fill-opacity:0;stroke:#000;stroke-width:1.19203472;stroke-miterlimit:4;stroke-dasharray:none"/><text id="text4848" x="469.175" y="56.766" font-size="15.804" style="font-style:normal;font-weight:400;font-size:21.16666603px;font-family:'courier new';text-anchor:middle;fill:#000"><tspan style="font-size:21.16666603px" id="tspan4850" x="469.175" y="56.766">@SearchIndex(&quot;a&quot;)</tspan></text></g><g id="g3370" transform="translate(109.59416,234.31188)"><rect style="fill:none;fill-opacity:0;stroke:#000;stroke-width:1.30892479;stroke-miterlimit:4;stroke-dasharray:none" id="rect3372" width="290.497" height="43.076" x="487.641" y="33.548"/><text style="font-style:normal;font-weight:400;font-size:21.16666603px;font-family:'courier new';text-anchor:middle;fill:#000" id="text3374" x="633.368" y="56.766" font-size="15.804"><tspan id="tspan3376" x="633.368" y="56.766" style="font-size:21.16666603px">@NegativeIndexFor(&quot;a&quot;)</tspan></text></g><g id="g3378" transform="translate(107.60376,229.89491)"><line id="line3380" x1="460.5" x2="460.5" y1="200" y2="173.736" style="fill:none;fill-opacity:0;stroke:#000;stroke-width:2"/><polygon id="polygon3382" points="460.5 173.736 455.5 176.236 460.5 166.236 465.5 176.236" style="fill:#000"/><polygon id="polygon3384" points="460.5 173.736 455.5 176.236 460.5 166.236 465.5 176.236" style="fill:none;fill-opacity:0;stroke:#000;stroke-width:2"/></g><g id="g3374" transform="translate(-30.628692,234.31187)"><rect style="fill:none;fill-opacity:0;stroke:#000;stroke-width:1.33258557;stroke-miterlimit:4;stroke-dasharray:none" id="rect3376" width="301.26" height="43.052" x="268.33" y="32.361"/><text style="font-style:normal;font-weight:400;font-size:21.16666603px;font-family:'courier new';text-anchor:middle;fill:#000" id="text3378" x="423.633" y="55.567" font-size="15.804"><tspan id="tspan3380" x="423.633" y="55.567" style="font-size:21.16666603px">@SearchIndex({&quot;a&quot;, &quot;b})</tspan></text></g><g id="g3382" transform="translate(-59.392362,315.80893)"><rect id="rect3384" width="375.414" height="42.9" x="443.385" y="33.636" style="fill:none;fill-opacity:0;stroke:#000;stroke-width:1.48494232;stroke-miterlimit:4;stroke-dasharray:none"/><text id="text3386" x="633.368" y="56.766" font-size="15.804" style="font-style:normal;font-weight:400;font-size:21.16666603px;font-family:'courier new';text-anchor:middle;fill:#000"><tspan style="font-size:21.16666603px" id="tspan3388" x="633.368" y="56.766">@NegativeIndexFor({&quot;a&quot;, &quot;b&quot;})</tspan></text></g><g id="g3396" transform="translate(123.78648,-1.8530272e-7)"><g id="g3590" transform="matrix(0.52612488,0.85040733,-0.85040733,0.52612488,342.44621,-248.62679)"><line id="line3592" x1="460.5" x2="460.5" y1="200" y2="173.736" style="fill:none;fill-opacity:0;stroke:#000;stroke-width:2"/><polygon id="polygon3594" points="465.5 176.236 460.5 173.736 455.5 176.236 460.5 166.236" style="fill:#000"/><polygon id="polygon3596" points="465.5 176.236 460.5 173.736 455.5 176.236 460.5 166.236" style="fill:none;fill-opacity:0;stroke:#000;stroke-width:2"/></g><path style="fill:none;fill-rule:evenodd;stroke:#000;stroke-width:1.41111112px;stroke-linecap:butt;stroke-linejoin:miter;stroke-opacity:1" id="path3390" d="m 435.64085,234.99948 -51.83452,31.16063 z"/><path id="path3394" d="m 436.24009,235.59872 -51.83452,31.16063 z" style="fill:none;fill-rule:evenodd;stroke:#000;stroke-width:1.41111112px;stroke-linecap:butt;stroke-linejoin:miter;stroke-opacity:1"/></g><g id="g3404" transform="matrix(-1,0,0,1,1016.3086,0.29962135)"><g id="g3406" transform="matrix(0.52612488,0.85040733,-0.85040733,0.52612488,342.44621,-248.62679)"><line style="fill:none;fill-opacity:0;stroke:#000;stroke-width:2" id="line3408" x1="460.5" x2="460.5" y1="200" y2="173.736"/><polygon style="fill:#000" id="polygon3410" points="460.5 166.236 465.5 176.236 460.5 173.736 455.5 176.236"/><polygon style="fill:none;fill-opacity:0;stroke:#000;stroke-width:2" id="polygon3412" points="460.5 166.236 465.5 176.236 460.5 173.736 455.5 176.236"/></g><path id="path3414" d="m 435.64085,234.99948 -51.83452,31.16063 z" style="fill:none;fill-rule:evenodd;stroke:#000;stroke-width:1.41111112px;stroke-linecap:butt;stroke-linejoin:miter;stroke-opacity:1"/><path style="fill:none;fill-rule:evenodd;stroke:#000;stroke-width:1.41111112px;stroke-linecap:butt;stroke-linejoin:miter;stroke-opacity:1" id="path3416" d="m 436.24009,235.59872 -51.83452,31.16063 z"/></g><g id="g3418" transform="matrix(-1,0,0,1,954.21981,82.144063)"><g id="g3420" transform="matrix(0.52612488,0.85040733,-0.85040733,0.52612488,342.44621,-248.62679)"><line id="line3422" x1="460.5" x2="460.5" y1="200" y2="173.736" style="fill:none;fill-opacity:0;stroke:#000;stroke-width:2"/><polygon id="polygon3424" points="460.5 173.736 455.5 176.236 460.5 166.236 465.5 176.236" style="fill:#000"/><polygon id="polygon3426" points="460.5 173.736 455.5 176.236 460.5 166.236 465.5 176.236" style="fill:none;fill-opacity:0;stroke:#000;stroke-width:2"/></g><path style="fill:none;fill-rule:evenodd;stroke:#000;stroke-width:1.41111112px;stroke-linecap:butt;stroke-linejoin:miter;stroke-opacity:1" id="path3428" d="m 435.64085,234.99948 -51.83452,31.16063 z"/><path id="path3430" d="m 436.24009,235.59872 -51.83452,31.16063 z" style="fill:none;fill-rule:evenodd;stroke:#000;stroke-width:1.41111112px;stroke-linecap:butt;stroke-linejoin:miter;stroke-opacity:1"/></g><g id="g3432" transform="translate(194.34204,83.255553)"><g id="g3434" transform="matrix(0.52612488,0.85040733,-0.85040733,0.52612488,342.44621,-248.62679)"><line style="fill:none;fill-opacity:0;stroke:#000;stroke-width:2" id="line3436" x1="460.5" x2="460.5" y1="200" y2="173.736"/><polygon style="fill:#000" id="polygon3438" points="460.5 173.736 455.5 176.236 460.5 166.236 465.5 176.236"/><polygon style="fill:none;fill-opacity:0;stroke:#000;stroke-width:2" id="polygon3440" points="460.5 173.736 455.5 176.236 460.5 166.236 465.5 176.236"/></g><path id="path3442" d="m 435.64085,234.99948 -51.83452,31.16063 z" style="fill:none;fill-rule:evenodd;stroke:#000;stroke-width:1.41111112px;stroke-linecap:butt;stroke-linejoin:miter;stroke-opacity:1"/><path style="fill:none;fill-rule:evenodd;stroke:#000;stroke-width:1.41111112px;stroke-linecap:butt;stroke-linejoin:miter;stroke-opacity:1" id="path3444" d="m 436.24009,235.59872 -51.83452,31.16063 z"/></g></svg>