<svg xmlns="http://www.w3.org/2000/svg" xmlns:svg="http://www.w3.org/2000/svg" id="svg3577" width="620" height="160" version="1.1" viewBox="358 100 515.56 211.667"><metadata id="metadata3693"/><g id="g3589" transform="translate(153.6843,-18.841861)"><rect id="rect3591" width="201" height="44" x="360" y="120" style="fill:#fff"/><rect id="rect3593" width="291.165" height="43.71" x="316.282" y="120.145" style="fill:none;stroke:#7f7f7f;stroke-width:2.39919949;stroke-opacity:1"/><text id="text3595" x="460.5" y="146.772" font-size="15.804" style="font-style:normal;font-weight:400;font-size:14.32277775px;line-height:0%;font-family:'courier new';text-anchor:middle;fill:#7f7f7f;fill-opacity:1"><tspan style="font-size:21.16666603px;fill:#7f7f7f;fill-opacity:1" id="tspan3597" x="460.5" y="146.772">@SubstringIndexUnknown</tspan></text></g><g id="g3657" transform="translate(155.04929,-17.841651)"><line id="line3659" x1="460.5" x2="460.5" y1="200" y2="173.736" style="fill:none;stroke:#000;stroke-width:2"/><polygon id="polygon3661" points="455.5 176.236 460.5 166.236 465.5 176.236 460.5 173.736" style="fill:#000"/><polygon id="polygon3663" points="455.5 176.236 460.5 166.236 465.5 176.236 460.5 173.736" style="fill:none;stroke:#000;stroke-width:2"/></g><rect id="rect3561" width="283.822" height="43.74" x="473.638" y="266.083" style="fill:none;stroke:#7f7f7f;stroke-width:2.36985517;stroke-miterlimit:4;stroke-dasharray:none;stroke-opacity:1"/><text id="text3563" x="615.859" y="294.42" font-size="15.804" style="font-style:normal;font-weight:400;font-size:15.80440044px;line-height:0%;font-family:'courier new';text-anchor:middle;fill:#7f7f7f;fill-opacity:1"><tspan id="tspan3565" x="615.859" y="294.42" style="font-size:21.16666603px;fill:#7f7f7f;fill-opacity:1">@SubstringIndexBottom</tspan></text><g id="g4856" transform="translate(155.04929,64.158695)"><line style="fill:none;stroke:#000;stroke-width:2" id="line4858" x1="460.5" x2="460.5" y1="200" y2="173.736"/><polygon style="fill:#000" id="polygon4860" points="465.5 176.236 460.5 173.736 455.5 176.236 460.5 166.236"/><polygon style="fill:none;stroke:#000;stroke-width:2" id="polygon4862" points="465.5 176.236 460.5 173.736 455.5 176.236 460.5 166.236"/></g><g id="g3704" transform="translate(166.54547,150.92016)"><rect id="rect3706" width="814.439" height="45.597" x="41.784" y="30.592" style="fill:none;stroke:#000;stroke-width:1.37245405;stroke-miterlimit:4;stroke-dasharray:none"/><text id="text3708" x="450.549" y="56.766" font-size="15.804" style="font-style:normal;font-weight:400;font-size:15.80440044px;line-height:0%;font-family:'courier new';text-anchor:middle;fill:#000"><tspan id="tspan3710" x="450.549" y="56.766" style="font-size:21.16666603px">@SubstringIndexFor(value=&quot;myStr&quot;, offset=&quot;subStr.length()-1&quot;)</tspan></text></g></svg>