<svg xmlns="http://www.w3.org/2000/svg" xmlns:svg="http://www.w3.org/2000/svg" id="svg2" width="10.5cm" height="4.5cm" version="1.1" viewBox="619 259 402 165"><metadata id="metadata80"/><g id="g4"><rect style="fill:#fff" id="rect6" width="160" height="42" x="620" y="320"/><rect style="fill:none;fill-opacity:0;stroke-width:2;stroke:#000" id="rect8" width="160" height="42" x="620" y="320"/><text style="font-style:normal;font-weight:400;font-size:16px;font-family:'courier new';text-anchor:middle;fill:#000" id="text10" x="700" y="345.85" font-size="16"><tspan id="tspan12" x="700" y="345.85">@MyType</tspan></text></g><g id="g14"><rect style="fill:#fff" id="rect16" width="160" height="42" x="860" y="320"/><rect style="fill:none;fill-opacity:0;stroke-width:2;stroke:#000" id="rect18" width="160" height="42" x="860" y="320"/><text style="font-style:normal;font-weight:400;font-size:16px;font-family:'courier new';text-anchor:middle;fill:#000" id="text20" x="940" y="345.85" font-size="16"><tspan id="tspan22" x="940" y="345.85">@NotMyType</tspan></text></g><g id="g24"><rect style="fill:#fff" id="rect26" width="160" height="42" x="740" y="260"/><rect style="fill:none;fill-opacity:0;stroke-width:2;stroke:#000" id="rect28" width="160" height="42" x="740" y="260"/><text style="font-style:normal;font-weight:400;font-size:16px;font-family:'courier new';text-anchor:middle;fill:#000" id="text30" x="820" y="285.85" font-size="16"><tspan id="tspan32" x="820" y="285.85">@MyTypeUnknown</tspan></text></g><g id="g34"><line style="fill:none;fill-opacity:0;stroke-width:2;stroke:#000" id="line36" x1="700" x2="805.166" y1="320" y2="304.225"/><polygon style="fill:#000" id="polygon38" points="806.204 311.148 819.011 302.148 804.128 297.303"/><polygon style="fill:none;fill-opacity:0;stroke-width:2;stroke:#000" id="polygon40" points="806.204 311.148 819.011 302.148 804.128 297.303"/></g><g id="g42"><line style="fill:none;fill-opacity:0;stroke-width:2;stroke:#000" id="line44" x1="940" x2="834.834" y1="320" y2="304.225"/><polygon style="fill:#000" id="polygon46" points="835.872 297.303 820.989 302.148 833.796 311.148"/><polygon style="fill:none;fill-opacity:0;stroke-width:2;stroke:#000" id="polygon48" points="835.872 297.303 820.989 302.148 833.796 311.148"/></g><g id="g50"><line style="fill:none;fill-opacity:0;stroke-width:2;stroke:#000" id="line52" x1="820" x2="714.834" y1="380" y2="364.225"/><polygon style="fill:#000" id="polygon54" points="715.872 357.303 700.989 362.148 713.796 371.148"/><polygon style="fill:none;fill-opacity:0;stroke-width:2;stroke:#000" id="polygon56" points="715.872 357.303 700.989 362.148 713.796 371.148"/></g><g id="g58"><line style="fill:none;fill-opacity:0;stroke-width:2;stroke:#000" id="line60" x1="820" x2="925.166" y1="380" y2="364.225"/><polygon style="fill:#000" id="polygon62" points="926.204 371.148 939.011 362.148 924.128 357.303"/><polygon style="fill:none;fill-opacity:0;stroke-width:2;stroke:#000" id="polygon64" points="926.204 371.148 939.011 362.148 924.128 357.303"/></g><g id="g66"><rect style="fill:#fff" id="rect68" width="160" height="42" x="740" y="380"/><rect style="fill:none;fill-opacity:0;stroke-width:2;stroke:#000" id="rect70" width="160" height="42" x="740" y="380"/><text style="font-style:normal;font-weight:400;font-size:16px;font-family:'courier new';text-anchor:middle;fill:#000" id="text72" x="820" y="405.85" font-size="16"><tspan id="tspan74" x="820" y="405.85">@MyTypeBottom</tspan></text></g></svg>