<svg xmlns="http://www.w3.org/2000/svg" xmlns:svg="http://www.w3.org/2000/svg" id="svg3577" width="346.2" height="280.941" version="1.1" viewBox="358 100 287.882 371.662"><metadata id="metadata3693"/><g id="g3589" transform="translate(43.662473,-18.999996)"><rect id="rect3591" width="201" height="44" x="360" y="120" style="fill:#fff"/><rect id="rect3593" width="240.367" height="43.817" x="340.916" y="120.091" style="fill:none;fill-opacity:0;stroke:#7f7f7f;stroke-width:2.18256378;stroke-opacity:1"/><text id="text3595" x="460.5" y="146.772" font-size="15.804" style="font-style:normal;font-weight:400;font-size:14.32277775px;font-family:'courier new';text-anchor:middle;fill:#7f7f7f;fill-opacity:1"><tspan style="font-size:21.16666603px;fill:#7f7f7f;fill-opacity:1" id="tspan3597" x="460.5" y="146.772">@UpperBoundUnknown</tspan></text></g><g id="g3657" transform="translate(43.662473,-17.999787)"><line id="line3659" x1="460.5" x2="460.5" y1="200" y2="173.736" style="fill:none;fill-opacity:0;stroke:#000;stroke-width:2"/><polygon id="polygon3661" points="460.5 173.736 455.5 176.236 460.5 166.236 465.5 176.236" style="fill:#000"/><polygon id="polygon3663" points="460.5 173.736 455.5 176.236 460.5 166.236 465.5 176.236" style="fill:none;fill-opacity:0;stroke:#000;stroke-width:2"/></g><rect id="rect3559" width="201" height="44" x="403.663" y="347.001" style="fill:#fff"/><rect id="rect3561" width="230.822" height="43.86" x="386.808" y="426.732" style="fill:none;fill-opacity:0;stroke:#7f7f7f;stroke-width:2.14008689;stroke-miterlimit:4;stroke-dasharray:none;stroke-opacity:1"/><text id="text3563" x="501.62" y="455.129" font-size="15.804" style="font-style:normal;font-weight:400;font-size:15.80440044px;font-family:'courier new';text-anchor:middle;fill:#7f7f7f;fill-opacity:1"><tspan id="tspan3565" x="501.62" y="455.129" style="font-size:21.16666603px;fill:#7f7f7f;fill-opacity:1">@UpperBoundBottom</tspan></text><g id="g3631" transform="translate(63.835768,310.93151)"><rect style="fill:none;fill-opacity:0;stroke:#000;stroke-width:1.32192183;stroke-miterlimit:4;stroke-dasharray:none" id="rect3583" width="455.825" height="42.243" x="210.617" y="33.964"/><text id="text3676" x="441.77" y="56.766" font-size="15.804" style="font-style:normal;font-weight:400;font-size:15.80440044px;font-family:'courier new';text-anchor:middle;fill:#000"><tspan id="tspan3678" x="441.77" y="56.766" style="font-size:21.16666603px">@LTOMLengthOf(&quot;myArray&quot;)</tspan></text></g><g id="g3590" transform="translate(42.815005,224.81445)"><line style="fill:none;fill-opacity:0;stroke:#000;stroke-width:2" id="line3592" x1="460.5" x2="460.5" y1="200" y2="173.736"/><polygon style="fill:#000" id="polygon3594" points="460.5 166.236 465.5 176.236 460.5 173.736 455.5 176.236"/><polygon style="fill:none;fill-opacity:0;stroke:#000;stroke-width:2" id="polygon3596" points="460.5 166.236 465.5 176.236 460.5 173.736 455.5 176.236"/></g><path style="fill:none;fill-rule:evenodd;stroke:#000;stroke-width:1.41111112px;stroke-linecap:butt;stroke-linejoin:miter;stroke-opacity:1" id="path4201" d="m 610.66182,395.89969 0,0"/><g id="g4844" transform="translate(34.866493,231.91491)"><rect id="rect4846" width="437.619" height="42.784" x="250.487" y="33.694" style="fill:none;fill-opacity:0;stroke:#000;stroke-width:1.60108316;stroke-miterlimit:4;stroke-dasharray:none"/><text id="text4848" x="469.175" y="56.766" font-size="15.804" style="font-style:normal;font-weight:400;font-size:21.16666603px;font-family:'courier new';text-anchor:middle;fill:#000"><tspan style="font-size:21.16666603px" id="tspan4850" x="469.175" y="56.766">@LTLengthOf(&quot;myArray&quot;)</tspan></text></g><g id="g4856" transform="translate(43.662473,64.000556)"><line style="fill:none;fill-opacity:0;stroke:#000;stroke-width:2" id="line4858" x1="460.5" x2="460.5" y1="200" y2="173.736"/><polygon style="fill:#000" id="polygon4860" points="460.5 166.236 465.5 176.236 460.5 173.736 455.5 176.236"/><polygon style="fill:none;fill-opacity:0;stroke:#000;stroke-width:2" id="polygon4862" points="460.5 166.236 465.5 176.236 460.5 173.736 455.5 176.236"/></g><g id="g3696" transform="translate(42.815015,143.86462)"><line style="fill:none;fill-opacity:0;stroke:#000;stroke-width:2" id="line3698" x1="460.5" x2="460.5" y1="200" y2="173.736"/><polygon style="fill:#000" id="polygon3700" points="455.5 176.236 460.5 166.236 465.5 176.236 460.5 173.736"/><polygon style="fill:none;fill-opacity:0;stroke:#000;stroke-width:2" id="polygon3702" points="455.5 176.236 460.5 166.236 465.5 176.236 460.5 173.736"/></g><g id="g3704" transform="translate(63.835771,150.76204)"><rect id="rect3706" width="455.825" height="42.243" x="210.617" y="33.964" style="fill:none;fill-opacity:0;stroke:#000;stroke-width:1.32192183;stroke-miterlimit:4;stroke-dasharray:none"/><text id="text3708" x="441.77" y="56.766" font-size="15.804" style="font-style:normal;font-weight:400;font-size:15.80440044px;font-family:'courier new';text-anchor:middle;fill:#000"><tspan id="tspan3710" x="441.77" y="56.766" style="font-size:21.16666603px">@LTEqLengthOf(&quot;myArray&quot;)</tspan></text></g></svg>